<svg width="231" height="231" viewBox="0 0 231 231" fill="none" xmlns="http://www.w3.org/2000/svg">
<g clip-path="url(#clip0_396_3066)">
<path d="M115.5 231C92.6563 231 70.3256 224.226 51.3317 211.535C32.3378 198.843 17.5339 180.805 8.79197 159.7C0.0500445 138.595 -2.23724 115.372 2.21935 92.9671C6.67594 70.5623 17.6763 49.9821 33.8292 33.8292C49.9822 17.6762 70.5623 6.67588 92.9671 2.21929C115.372 -2.2373 138.595 0.0499835 159.7 8.79191C180.805 17.5338 198.843 32.3377 211.535 51.3316C224.226 70.3255 231 92.6562 231 115.5C230.967 146.122 218.788 175.481 197.134 197.134C175.481 218.788 146.122 230.967 115.5 231ZM115.5 19.25C96.4636 19.25 77.8546 24.895 62.0264 35.471C46.1982 46.0471 33.8616 61.0793 26.5766 78.6667C19.2917 96.2541 17.3856 115.607 21.0995 134.277C24.8133 152.948 33.9802 170.098 47.441 183.559C60.9018 197.02 78.0519 206.187 96.7226 209.901C115.393 213.614 134.746 211.708 152.333 204.423C169.921 197.138 184.953 184.802 195.529 168.974C206.105 153.145 211.75 134.536 211.75 115.5C211.722 89.9815 201.572 65.5162 183.528 47.4719C165.484 29.4276 141.019 19.278 115.5 19.25ZM170.035 151.555C171.942 149.858 173.097 147.472 173.245 144.923C173.393 142.375 172.522 139.872 170.825 137.965C169.127 136.058 166.741 134.903 164.193 134.755C161.644 134.607 159.141 135.478 157.234 137.175C145.468 147.082 130.847 152.976 115.5 154C100.162 152.977 85.5492 147.09 73.7853 137.195C71.881 135.495 69.3793 134.621 66.8306 134.765C64.2819 134.909 61.8949 136.06 60.1948 137.965C58.4947 139.869 57.6207 142.371 57.7651 144.919C57.9095 147.468 59.0605 149.855 60.9648 151.555C76.248 164.612 95.4244 172.24 115.5 173.25C135.576 172.24 154.752 164.612 170.035 151.555ZM57.75 96.25C57.75 105.875 66.3644 105.875 77.0001 105.875C87.6357 105.875 96.2501 105.875 96.2501 96.25C96.2501 91.1446 94.2219 86.2483 90.6119 82.6382C87.0018 79.0281 82.1055 77 77.0001 77C71.8946 77 66.9983 79.0281 63.3882 82.6382C59.7782 86.2483 57.75 91.1446 57.75 96.25ZM134.75 96.25C134.75 105.875 143.364 105.875 154 105.875C164.636 105.875 173.25 105.875 173.25 96.25C173.25 91.1446 171.222 86.2483 167.612 82.6382C164.002 79.0281 159.105 77 154 77C148.895 77 143.998 79.0281 140.388 82.6382C136.778 86.2483 134.75 91.1446 134.75 96.25Z" fill="#F5F5F0"/>
</g>
<defs>
<clipPath id="clip0_396_3066">
<rect width="231" height="231" fill="white"/>
</clipPath>
</defs>
</svg>
