<svg width="269" height="312" viewBox="0 0 269 312" fill="none" xmlns="http://www.w3.org/2000/svg">
<path fill-rule="evenodd" clip-rule="evenodd" d="M185.045 115.967C161.97 131.473 129.637 144.654 101.197 150.239C72.6725 160.982 44.6766 179.181 25.2991 195.112C13.1778 215.011 4.19799 238.653 1.69588 260.31C3.89218 282.987 17.9596 322.588 19.8501 308.613C26.856 257.163 45.1214 233.012 108.369 220.908C153.435 218.158 190.077 208.52 215.432 194.318C237.061 174.589 253.659 150.466 268.282 121.92C268.282 121.892 268.282 121.892 268.282 121.863C269.783 105.422 268.977 82.3195 265.419 73.1067C261.86 63.9223 254.548 80.0517 255.327 71.7744C256.105 63.4971 258.246 40.6212 259.024 32.4005C259.803 24.1799 250.239 27.5249 249.794 30.643L244.79 66.105C232.947 83.7935 205.924 119.993 207.842 106.358L211.568 80.0234C224.023 67.1539 243.233 45.2134 234.142 31.0682C221.965 12.1608 186.63 8.05053 159.635 0L18.6268 0.708673C17.3758 0.708673 16.5973 2.21106 15.5965 3.00477C9.28562 8.10722 0.389218 13.0112 0.389218 20.4381L0 216.06C14.8737 189.272 33.7507 171.329 55.1577 155.285V67.7492C56.0751 66.4736 57.1872 65.283 58.4938 64.2342C59.5503 63.3837 60.6345 62.6751 61.7744 62.1081C89.8537 64.631 118.072 65.3397 146.401 64.4609C146.235 64.9995 146.068 65.5665 145.929 66.1334C147.374 65.3964 148.959 64.8578 150.683 64.5743C158.856 63.2137 168.059 67.7492 175.509 75.7714C178.067 78.5494 180.402 81.7242 182.432 85.2392C184.072 88.1306 185.518 91.2204 186.658 94.4803C188.965 101.057 189.799 107.407 189.327 112.991C187.936 113.983 186.519 115.004 185.045 115.967Z" fill="#F5F5F0"/>
</svg>
