<svg width="424" height="424" viewBox="0 0 424 424" fill="none" xmlns="http://www.w3.org/2000/svg">
<path d="M389.147 211.707C389.147 190.858 385.041 170.214 377.062 150.952C369.084 131.691 357.39 114.189 342.647 99.4469C327.905 84.7047 310.404 73.0105 291.142 65.0321C271.881 57.0537 251.236 52.9473 230.387 52.9473C209.539 52.9473 188.894 57.0537 169.633 65.0321C150.371 73.0105 132.87 84.7047 118.128 99.4469C103.385 114.189 91.6912 131.691 83.7128 150.952C75.7344 170.214 71.6279 190.858 71.6279 211.707H72.6692C72.6692 190.995 76.7487 170.486 84.6748 151.351C92.6009 132.215 104.218 114.829 118.864 100.183C133.509 85.5377 150.896 73.9202 170.031 65.9941C189.167 58.068 209.676 53.9885 230.387 53.9885C251.099 53.9885 271.608 58.068 290.744 65.9941C309.879 73.9202 327.266 85.5377 341.911 100.183C356.557 114.829 368.174 132.215 376.1 151.351C384.026 170.486 388.106 190.995 388.106 211.707H389.147Z" fill="#F5F5F0"/>
<path d="M182.213 45.0571C161.718 48.8816 142.178 56.7054 124.706 68.0818C107.235 79.4582 92.1759 94.1644 80.3882 111.361C68.6005 128.557 60.3153 147.907 56.0057 168.305C51.696 188.703 51.4463 209.751 55.2708 230.246C59.0953 250.74 66.9191 270.281 78.2955 287.752C89.6719 305.224 104.378 320.283 121.574 332.071C138.771 343.858 158.12 352.144 178.519 356.453C198.917 360.763 219.965 361.013 240.459 357.188L240.261 356.125C219.906 359.924 199.002 359.676 178.742 355.395C158.483 351.115 139.265 342.886 122.186 331.179C105.106 319.471 90.5004 304.515 79.2015 287.163C67.9026 269.81 60.1321 250.403 56.3336 230.047C52.5352 209.692 52.7832 188.788 57.0635 168.529C61.3438 148.269 69.5726 129.051 81.28 111.972C92.9875 94.8928 107.944 80.2868 125.296 68.9879C142.649 57.6889 162.056 49.9184 182.412 46.12L182.213 45.0571Z" fill="#F5F5F0"/>
<path d="M279.955 369.967C309.695 356.487 334.555 334.165 351.148 306.043C367.74 277.921 375.258 245.367 372.677 212.817C370.095 180.267 357.54 149.304 336.722 124.149C315.905 98.9937 287.837 80.8692 256.344 72.2453L256.049 73.325C287.319 81.888 315.189 99.8848 335.86 124.863C356.531 149.841 368.997 180.585 371.561 212.905C374.124 245.226 366.659 277.55 350.183 305.474C333.708 333.398 309.023 355.562 279.493 368.947L279.955 369.967Z" fill="#F5F5F0"/>
<path d="M100.03 99.4506C76.882 122.48 61.3976 152.086 55.6871 184.235C49.9766 216.384 54.3178 249.511 68.119 279.103C81.9202 308.696 104.51 333.312 132.81 349.599C161.11 365.886 193.744 373.051 226.264 370.117L226.164 369.003C193.873 371.916 161.469 364.801 133.369 348.629C105.268 332.457 82.8374 308.014 69.1335 278.63C55.4296 249.247 51.119 216.353 56.7893 184.43C62.4595 152.508 77.8347 123.111 100.82 100.244L100.03 99.4506Z" fill="#F5F5F0"/>
<path d="M310.659 278.166C326.91 260.137 337.207 237.535 340.146 213.441C343.085 189.347 338.523 164.933 327.082 143.525C315.641 122.118 297.878 104.759 276.213 93.8142C254.549 82.8692 230.036 78.8705 206.016 82.363L206.136 83.1865C229.986 79.7186 254.326 83.6891 275.838 94.557C297.35 105.425 314.988 122.661 326.348 143.918C337.708 165.174 342.238 189.416 339.32 213.34C336.402 237.264 326.178 259.707 310.041 277.609L310.659 278.166Z" fill="#F5F5F0"/>
<path d="M103.367 196.193C94.4475 218.767 92.705 243.542 98.3775 267.143C104.05 290.743 116.861 312.02 135.066 328.075C153.27 344.13 175.982 354.181 200.107 356.859C224.231 359.536 248.594 354.711 269.877 343.039L269.476 342.309C248.344 353.899 224.153 358.691 200.199 356.032C176.244 353.373 153.692 343.393 135.616 327.451C117.54 311.51 104.819 290.382 99.1865 266.948C93.5541 243.514 95.2842 218.913 104.141 196.498L103.367 196.193Z" fill="#F5F5F0"/>
<path d="M315.654 270.354C316.116 246.086 309.084 222.266 295.517 202.139C281.95 182.012 262.506 166.559 239.837 157.884C217.167 149.209 192.375 147.735 168.837 153.662C145.299 159.59 124.162 172.631 108.305 191.009L108.935 191.552C124.68 173.304 145.668 160.355 169.04 154.469C192.412 148.583 217.03 150.047 239.539 158.661C262.049 167.275 281.355 182.619 294.827 202.604C308.299 222.589 315.281 246.241 314.822 270.338L315.654 270.354Z" fill="#F5F5F0"/>
<path d="M178.89 125.463C156.954 135.853 138.755 152.755 126.774 173.864C114.792 194.974 109.611 219.264 111.936 243.425C114.261 267.586 123.98 290.442 139.767 308.879C155.554 327.316 176.642 340.437 200.157 346.454L200.363 345.647C177.014 339.673 156.075 326.645 140.399 308.338C124.723 290.031 115.073 267.336 112.765 243.345C110.456 219.355 115.601 195.236 127.497 174.275C139.394 153.315 157.465 136.532 179.246 126.215L178.89 125.463Z" fill="#F5F5F0"/>
<path d="M169.311 312.432C188.381 327.448 211.618 336.219 235.854 337.549C260.09 338.88 284.147 332.705 304.746 319.866C325.345 307.027 341.484 288.149 350.964 265.804C360.445 243.46 362.805 218.735 357.723 195.001L356.909 195.175C361.955 218.742 359.612 243.292 350.198 265.479C340.785 287.666 324.759 306.411 304.306 319.16C283.852 331.908 259.965 338.039 235.899 336.719C211.834 335.398 188.762 326.689 169.826 311.778L169.311 312.432Z" fill="#F5F5F0"/>
<path d="M94.1668 171.025C82.6444 192.388 77.9894 216.785 80.8361 240.89C83.6829 264.995 93.8929 287.636 110.075 305.728C126.257 323.819 147.623 336.481 171.263 341.988C194.903 347.495 219.665 345.579 242.176 336.501L241.865 335.729C219.513 344.743 194.925 346.646 171.452 341.178C147.979 335.709 126.763 323.137 110.695 305.173C94.6272 287.209 84.4892 264.727 81.6625 240.792C78.8358 216.857 83.458 192.633 94.8992 171.42L94.1668 171.025Z" fill="#F5F5F0"/>
<path d="M241.511 168.395C233.754 152.155 221.178 138.702 205.498 129.868C189.817 121.035 171.794 117.251 153.885 119.033C135.976 120.815 119.052 128.075 105.419 139.825C91.7859 151.575 82.1076 167.243 77.7027 184.693L78.3009 184.844C82.6747 167.517 92.2848 151.959 105.822 140.292C119.358 128.625 136.163 121.416 153.946 119.647C171.729 117.878 189.625 121.635 205.195 130.406C220.765 139.177 233.252 152.536 240.954 168.661L241.511 168.395Z" fill="#F5F5F0"/>
<path d="M237.196 123.459C228.525 113.434 217.689 105.511 205.508 100.286C193.326 95.0618 180.117 92.6728 166.878 93.2996C153.638 93.9264 140.713 97.5526 129.08 103.905C117.447 110.256 107.408 119.168 99.7223 129.967L100.225 130.325C107.857 119.602 117.824 110.753 129.376 104.446C140.927 98.1389 153.76 94.5383 166.907 93.9159C180.053 93.2935 193.169 95.6657 205.265 100.853C217.36 106.041 228.119 113.909 236.73 123.862L237.196 123.459Z" fill="#F5F5F0"/>
<path d="M226.294 315.442C237.923 321.801 250.846 325.435 264.085 326.07C277.324 326.705 290.535 324.323 302.72 319.106C314.904 313.889 325.744 305.972 334.422 295.953C343.1 285.934 349.388 274.074 352.812 261.27L352.216 261.11C348.816 273.825 342.572 285.601 333.956 295.549C325.339 305.497 314.575 313.359 302.477 318.539C290.378 323.719 277.261 326.084 264.115 325.453C250.969 324.823 238.137 321.215 226.59 314.901L226.294 315.442Z" fill="#F5F5F0"/>
<path d="M306.976 249.903C311.169 237.33 312.452 223.968 310.726 210.826C309.001 197.684 304.313 185.106 297.015 174.041C289.718 162.976 280.003 153.713 268.602 146.952C257.202 140.191 244.415 136.107 231.205 135.011L231.154 135.625C244.27 136.715 256.968 140.769 268.288 147.483C279.608 154.196 289.254 163.394 296.5 174.381C303.746 185.368 308.401 197.857 310.115 210.906C311.828 223.955 310.554 237.223 306.39 249.708L306.976 249.903Z" fill="#F5F5F0"/>
<path d="M116.702 221.383C117.17 234.629 120.641 247.596 126.854 259.305C133.066 271.013 141.857 281.158 152.563 288.972C163.269 296.787 175.61 302.067 188.655 304.415C201.7 306.763 215.108 306.116 227.866 302.524L227.699 301.931C215.03 305.497 201.717 306.139 188.764 303.808C175.811 301.477 163.557 296.233 152.926 288.474C142.296 280.715 133.567 270.642 127.399 259.016C121.23 247.39 117.783 234.514 117.318 221.361L116.702 221.383Z" fill="#F5F5F0"/>
<path d="M294.352 251.418C289.281 239.171 281.494 228.237 271.58 219.44C261.665 210.643 249.882 204.214 237.119 200.636C224.356 197.059 210.948 196.428 197.905 198.79C184.863 201.153 172.528 206.447 161.831 214.274L162.195 214.772C172.817 207 185.065 201.743 198.015 199.398C210.966 197.052 224.28 197.678 236.953 201.23C249.625 204.782 261.326 211.167 271.17 219.902C281.015 228.637 288.747 239.494 293.782 251.654L294.352 251.418Z" fill="#F5F5F0"/>
<path d="M171.418 152.968C162.71 162.961 156.386 174.802 152.923 187.596C149.46 200.39 148.949 213.804 151.428 226.824C153.907 239.845 159.312 252.132 167.234 262.759C175.156 273.386 185.388 282.074 197.159 288.168L197.443 287.62C185.755 281.569 175.595 272.942 167.728 262.39C159.862 251.839 154.496 239.638 152.034 226.709C149.573 213.78 150.08 200.461 153.519 187.757C156.957 175.053 163.237 163.296 171.883 153.374L171.418 152.968Z" fill="#F5F5F0"/>
<path d="M197.266 306.878C210.091 310.226 223.509 310.617 236.507 308.021C249.505 305.426 261.743 299.912 272.299 291.895C282.854 283.878 291.45 273.568 297.439 261.743C303.427 249.919 306.651 236.888 306.867 223.635L306.25 223.625C306.035 236.785 302.834 249.723 296.888 261.465C290.942 273.206 282.406 283.443 271.926 291.403C261.445 299.364 249.292 304.839 236.386 307.416C223.48 309.994 210.157 309.605 197.422 306.281L197.266 306.878Z" fill="#F5F5F0"/>
<path d="M306.222 186.36C307.013 173.129 304.788 159.891 299.715 147.646C294.642 135.401 286.853 124.468 276.937 115.673C267.021 106.878 255.237 100.45 242.473 96.875C229.71 93.3 216.301 92.6711 203.259 95.0359L203.369 95.643C216.319 93.2949 229.634 93.9193 242.307 97.4691C254.98 101.019 266.682 107.401 276.528 116.134C286.374 124.868 294.108 135.723 299.145 147.882C304.182 160.041 306.392 173.186 305.606 186.323L306.222 186.36Z" fill="#F5F5F0"/>
<path d="M139.629 280.65C143.515 293.322 150.229 304.946 159.264 314.644C168.299 324.342 179.419 331.861 191.784 336.633C204.15 341.405 217.438 343.306 230.646 342.192C243.853 341.078 256.635 336.978 268.027 330.202L267.711 329.671C256.4 336.4 243.708 340.471 230.594 341.577C217.479 342.683 204.285 340.796 192.006 336.057C179.728 331.319 168.686 323.853 159.715 314.223C150.744 304.594 144.077 293.052 140.219 280.469L139.629 280.65Z" fill="#F5F5F0"/>
<path d="M252.147 203.91C244.074 193.397 233.72 184.855 221.864 178.929C210.008 173.003 196.96 169.847 183.707 169.701C170.453 169.554 157.339 172.421 145.355 178.083C133.371 183.746 122.829 192.057 114.527 202.389L115.008 202.775C123.252 192.516 133.719 184.264 145.618 178.641C157.518 173.018 170.539 170.172 183.7 170.318C196.86 170.463 209.815 173.597 221.588 179.481C233.36 185.365 243.642 193.847 251.657 204.286L252.147 203.91Z" fill="#F5F5F0"/>
<path d="M147.669 211.911C141.849 223.82 138.811 236.895 138.783 250.149C138.755 263.404 141.738 276.492 147.508 288.424C153.277 300.357 161.682 310.824 172.088 319.034C182.494 327.243 194.629 332.982 207.577 335.817L207.709 335.214C194.852 332.399 182.803 326.701 172.47 318.549C162.138 310.397 153.792 300.005 148.063 288.156C142.334 276.307 139.372 263.312 139.4 250.151C139.427 236.989 142.445 224.007 148.223 212.182L147.669 211.911Z" fill="#F5F5F0"/>
<path d="M260.619 301.9C273.873 301.81 286.933 298.709 298.814 292.833C310.695 286.957 321.086 278.459 329.202 267.98C337.319 257.501 342.948 245.315 345.667 232.342C348.385 219.369 348.121 205.949 344.894 193.093L344.296 193.243C347.5 206.008 347.762 219.334 345.063 232.216C342.364 245.097 336.774 257.197 328.714 267.602C320.655 278.007 310.338 286.445 298.541 292.28C286.744 298.115 273.775 301.193 260.614 301.283L260.619 301.9Z" fill="#F5F5F0"/>
</svg>
